<svg xmlns="http://www.w3.org/2000/svg" viewBox="0 0 1024 1024">
  <path fill="#E8A87C" d="M319.03 318.205C324.026 317.859 329.045 318.04 334.004 318.745C391.76 326.89 415.201 388.724 387.627 437.236C379 452.415 360.195 469.61 347.464 482.218L277.682 552.029C264.908 564.822 244.051 584.234 234.4 597.958C222.076 615.243 214.093 635.239 211.123 656.259C205.667 691.788 214.912 728.007 236.729 756.574C274.285 806.386 339.629 827.394 398.589 805.2C402.132 803.866 405.66 802.284 409.033 800.565C417.373 796.25 425.259 791.109 432.573 785.218C440.884 778.44 448.021 770.522 455.671 763.075C469.985 749.143 483.489 734.258 497.372 720.04C519.001 697.919 540.864 676.029 562.958 654.373L581.766 635.405C585.636 631.502 590.371 626.386 594.776 623.209C592.277 652.24 600.717 681.664 620.77 703.238C642.125 726.213 667.04 734.625 697.605 736.379C683.118 749.623 666.434 767.447 652.376 781.621L584.857 848.785C571.32 862.345 555.683 880.361 541.221 892.173C430.216 982.827 278.631 971.523 172.167 882.548C112.958 832.806 75.627 761.821 68.1963 684.85C62.9203 618.652 81.3213 552.731 120.12 498.836C123.972 493.42 129.108 485.936 133.37 481.116C143.306 469.877 154.688 459.028 165.298 448.352L225.041 388.588L261.022 352.382C279.253 334.255 291.729 320.513 319.03 318.205Z"/>
  <path fill="#C87840" d="M646.963 69.7115C647.89 69.635 648.819 69.5844 649.749 69.5596C729.894 67.4085 807.524 97.6487 865.095 153.446C933.301 219.112 967.481 311.834 953.819 406.059C945.775 461.202 920.911 512.52 882.621 553.009C852.669 583.562 822.503 613.905 792.127 644.037L764.309 672.014C743.752 692.672 731.116 705.838 699.802 706.503C656.407 707.425 623.623 677.049 623.448 633.323C623.566 612.929 630.555 593.169 643.286 577.236C648.869 570.195 655.603 563.7 661.942 557.314L686.124 533.015C692.227 526.496 700.229 519.218 706.701 512.724L756.231 463.011C768.832 450.395 780.029 440.836 790.374 426.181C811.254 396.483 819.421 359.68 813.063 323.937C806.675 287.566 785.326 256.552 755.241 235.573C725.206 215.031 688.27 207.192 652.481 213.764C611.131 221.276 580.854 247.128 557.641 280.713C552.552 277.839 547.35 275.167 542.049 272.704C478.952 243.148 417.801 238.508 352.114 262.315C378.706 235.391 405.576 208.742 432.718 182.373C468.353 147.071 494.58 116.414 541.382 95.632C577.925 79.4056 607.137 72.1916 646.963 69.7115Z"/>
  <path fill="#7FB069" d="M423.043 276.706C423.763 276.638 424.278 276.594 425 276.561C490.261 273.621 546.186 301.499 594.953 342.629C603.481 349.821 611.861 357.985 620.054 365.739C601.136 383.35 571.758 395.815 547.109 402.327C514.783 409.589 486.453 409.785 453.972 402.264C445.56 400.317 435.734 397.598 427.935 394.05C426.957 346.485 400.771 309.512 355.711 293.717C373.735 283.622 402.546 278.153 423.043 276.706Z"/>
</svg>